<?xml version="1.0" encoding="UTF-8" standalone="no"?>
<!-- Generator: Adobe Illustrator 13.0.0, SVG Export Plug-In . SVG Version: 6.00 Build 14948)  -->

<svg
   version="1.1"
   id="Layer_1"
   x="0px"
   y="0px"
   width="550"
   height="280"
   viewBox="0 0 550 280"
   enable-background="new 0 0 500 500"
   xml:space="preserve"
   inkscape:version="1.1.2 (0a00cf5339, 2022-02-04)"
   sodipodi:docname="background.svg"
   xmlns:inkscape="http://www.inkscape.org/namespaces/inkscape"
   xmlns:sodipodi="http://sodipodi.sourceforge.net/DTD/sodipodi-0.dtd"
   xmlns:xlink="http://www.w3.org/1999/xlink"
   xmlns="http://www.w3.org/2000/svg"
   xmlns:svg="http://www.w3.org/2000/svg"
   xmlns:rdf="http://www.w3.org/1999/02/22-rdf-syntax-ns#"
   xmlns:cc="http://creativecommons.org/ns#"
   xmlns:dc="http://purl.org/dc/elements/1.1/"><metadata
   id="metadata8156"><rdf:RDF><cc:Work
       rdf:about=""><dc:format>image/svg+xml</dc:format><dc:type
         rdf:resource="http://purl.org/dc/dcmitype/StillImage" /></cc:Work></rdf:RDF></metadata><defs
   id="defs8154"><linearGradient
     id="linearGradient3829"><stop
       style="stop-color:#0036ff;stop-opacity:1;"
       offset="0"
       id="stop3831" /><stop
       style="stop-color:#000000;stop-opacity:1;"
       offset="1"
       id="stop3833" /></linearGradient><linearGradient
     inkscape:collect="always"
     xlink:href="#linearGradient3829"
     id="linearGradient3835"
     x1="131.5"
     y1="222.5"
     x2="210.5"
     y2="276.5"
     gradientUnits="userSpaceOnUse" /><linearGradient
     gradientTransform="matrix(0.62827903,0,0,0.62827903,92.822952,22.225755)"
     id="SVGID_16_"
     gradientUnits="userSpaceOnUse"
     x1="234.2803"
     y1="358.45901"
     x2="239.1073"
     y2="491.66159"><stop
       offset="0"
       style="stop-color:#ECEFCB"
       id="stop182" /><stop
       offset="1"
       style="stop-color:#B7BA91"
       id="stop184" /></linearGradient><linearGradient
     id="SVGID_15_"
     gradientUnits="userSpaceOnUse"
     x1="209.4111"
     y1="493.68851"
     x2="245.3712"
     y2="206.0153"><stop
       offset="0"
       style="stop-color:#E5802A"
       id="stop165" /><stop
       offset="1"
       style="stop-color:#EBD300"
       id="stop167" /></linearGradient><radialGradient
     id="SVGID_14_"
     cx="234.89751"
     cy="141.2471"
     r="14.0725"
     gradientTransform="matrix(0.76656324,0.05937237,-0.05937237,0.76656324,73.19118,-25.293375)"
     gradientUnits="userSpaceOnUse"><stop
       offset="0.0121"
       style="stop-color:#FFFFFF"
       id="stop140" /><stop
       offset="1"
       style="stop-color:#C3C3C3"
       id="stop142" /></radialGradient><linearGradient
     id="SVGID_13_"
     gradientUnits="userSpaceOnUse"
     x1="247.0732"
     y1="160.957"
     x2="252.0761"
     y2="139.6413"
     gradientTransform="matrix(0.62758792,0.02946629,-0.02946629,0.62758792,101.82845,15.024044)"><stop
       offset="0"
       style="stop-color:#2E2B22"
       id="stop129" /><stop
       offset="1"
       style="stop-color:#5C636A"
       id="stop131" /></linearGradient><linearGradient
     id="SVGID_12_"
     gradientUnits="userSpaceOnUse"
     x1="245.5479"
     y1="162.3564"
     x2="248.2691"
     y2="134.64571"
     gradientTransform="matrix(0.62639419,0.04850314,-0.04850314,0.62639419,104.75711,10.760354)"><stop
       offset="0"
       style="stop-color:#E5802A"
       id="stop120" /><stop
       offset="1"
       style="stop-color:#EBD300"
       id="stop122" /></linearGradient><radialGradient
     id="SVGID_11_"
     cx="270.31451"
     cy="149.873"
     r="15.2679"
     gradientTransform="matrix(1.2151,0.1452,-0.1452,1.2151,-21.514,-87.9268)"
     gradientUnits="userSpaceOnUse"><stop
       offset="0.0121"
       style="stop-color:#FFFFFF"
       id="stop107" /><stop
       offset="1"
       style="stop-color:#C3C3C3"
       id="stop109" /></radialGradient><linearGradient
     id="SVGID_10_"
     gradientUnits="userSpaceOnUse"
     x1="243.02251"
     y1="175.77541"
     x2="245.8082"
     y2="150.0024"
     gradientTransform="matrix(0.62639419,0.04850314,-0.04850314,0.62639419,104.75711,10.760354)"><stop
       offset="0"
       style="stop-color:#FFFFFF"
       id="stop98" /><stop
       offset="1"
       style="stop-color:#C3C3C3"
       id="stop100" /></linearGradient><linearGradient
     id="SVGID_9_"
     gradientUnits="userSpaceOnUse"
     x1="236.62601"
     y1="230.0264"
     x2="242.2308"
     y2="166.0127"
     gradientTransform="matrix(0.62639419,0.04850314,-0.04850314,0.62639419,104.75711,10.760354)"><stop
       offset="0"
       style="stop-color:#E5802A"
       id="stop87" /><stop
       offset="1"
       style="stop-color:#EBD300"
       id="stop89" /></linearGradient><linearGradient
     id="SVGID_8_"
     gradientUnits="userSpaceOnUse"
     x1="240.2197"
     y1="276.25201"
     x2="240.2197"
     y2="127.5594"
     gradientTransform="matrix(0.62639419,0.04850314,-0.04850314,0.62639419,104.75711,10.760354)"><stop
       offset="0"
       style="stop-color:#E5802A"
       id="stop80" /><stop
       offset="1"
       style="stop-color:#EBD300"
       id="stop82" /></linearGradient><linearGradient
     gradientTransform="matrix(0.62827903,0,0,0.62827903,92.822952,22.225755)"
     id="SVGID_7_"
     gradientUnits="userSpaceOnUse"
     x1="232.99899"
     y1="422.90039"
     x2="232.99899"
     y2="127.0979"><stop
       offset="0"
       style="stop-color:#E5802A"
       id="stop63" /><stop
       offset="1"
       style="stop-color:#EBD300"
       id="stop65" /></linearGradient><linearGradient
     id="SVGID_6_"
     gradientUnits="userSpaceOnUse"
     x1="404.5"
     y1="265.7305"
     x2="401.81091"
     y2="226.11189"
     gradientTransform="matrix(-0.6077343,-0.15933156,-0.15933156,0.6077343,438.78863,67.038196)"><stop
       offset="0"
       style="stop-color:#E5802A"
       id="stop54" /><stop
       offset="1"
       style="stop-color:#EBD300"
       id="stop56" /></linearGradient><linearGradient
     id="SVGID_5_"
     gradientUnits="userSpaceOnUse"
     x1="374.94531"
     y1="280.082"
     x2="368.97961"
     y2="192.1873"
     gradientTransform="matrix(-0.6077343,-0.15933156,-0.15933156,0.6077343,438.78863,67.038196)"><stop
       offset="0"
       style="stop-color:#E5802A"
       id="stop47" /><stop
       offset="1"
       style="stop-color:#EBD300"
       id="stop49" /></linearGradient><linearGradient
     id="SVGID_4_"
     gradientUnits="userSpaceOnUse"
     x1="391.02051"
     y1="266.43259"
     x2="388.33151"
     y2="226.8148"
     gradientTransform="matrix(0.62639419,0.04850314,-0.04850314,0.62639419,104.75711,10.760354)"><stop
       offset="0"
       style="stop-color:#E5802A"
       id="stop38" /><stop
       offset="1"
       style="stop-color:#EBD300"
       id="stop40" /></linearGradient><linearGradient
     id="SVGID_3_"
     gradientUnits="userSpaceOnUse"
     x1="361.46481"
     y1="280.78519"
     x2="355.49921"
     y2="192.8913"
     gradientTransform="matrix(0.62639419,0.04850314,-0.04850314,0.62639419,104.75711,10.760354)"><stop
       offset="0"
       style="stop-color:#E5802A"
       id="stop31" /><stop
       offset="1"
       style="stop-color:#EBD300"
       id="stop33" /></linearGradient><linearGradient
     id="SVGID_2_"
     gradientUnits="userSpaceOnUse"
     x1="102.3818"
     y1="438.63959"
     x2="102.3818"
     y2="377.16479"
     gradientTransform="matrix(-0.54641427,0.3100557,0.3100557,0.54641427,258.73794,16.304037)"><stop
       offset="0"
       style="stop-color:#E5802A"
       id="stop24" /><stop
       offset="1"
       style="stop-color:#EBD300"
       id="stop26" /></linearGradient><linearGradient
     id="SVGID_1_"
     gradientUnits="userSpaceOnUse"
     x1="130.4951"
     y1="457.78421"
     x2="130.4951"
     y2="396.31049"><stop
       offset="0"
       style="stop-color:#E5802A"
       id="stop17" /><stop
       offset="1"
       style="stop-color:#EBD300"
       id="stop19" /></linearGradient><linearGradient
     gradientTransform="matrix(0.62827903,0,0,0.62827903,92.822952,22.225755)"
     y2="396.31049"
     x2="130.4951"
     y1="457.78421"
     x1="130.4951"
     gradientUnits="userSpaceOnUse"
     id="linearGradient4039"
     xlink:href="#SVGID_1_"
     inkscape:collect="always" /><pattern
     patternUnits="userSpaceOnUse"
     width="60"
     height="418"
     patternTransform="translate(-225,-8)"
     id="pattern3267"><rect
       y="0"
       x="0"
       height="418"
       width="30"
       id="rect3263"
       style="fill:#4d4d4d;fill-opacity:1;stroke:none" /><rect
       style="fill:#1a1a1a;fill-opacity:1;stroke:none"
       id="rect3265"
       width="30"
       height="418"
       x="30"
       y="0" /></pattern></defs><sodipodi:namedview
   pagecolor="#ffffff"
   bordercolor="#666666"
   borderopacity="1"
   objecttolerance="10"
   gridtolerance="10"
   guidetolerance="10"
   inkscape:pageopacity="0"
   inkscape:pageshadow="2"
   inkscape:window-width="1920"
   inkscape:window-height="1013"
   id="namedview8152"
   showgrid="false"
   inkscape:zoom="1.4142136"
   inkscape:cx="313.60185"
   inkscape:cy="80.256618"
   inkscape:window-x="0"
   inkscape:window-y="36"
   inkscape:window-maximized="1"
   inkscape:current-layer="Layer_1"
   borderlayer="true"
   inkscape:showpageshadow="false"
   inkscape:pagecheckerboard="0" />
<path
   style="fill:#d5e5ff;fill-opacity:1;stroke:none;stroke-width:1.00130117"
   d="M 3.6934409e-8,-2.1105429e-8 H 550 V 280 H 3.6934409e-8 Z"
   id="rect3292"
   inkscape:connector-curvature="0" /><rect
   style="fill:none;stroke:none"
   width="60"
   height="550"
   x="-111.60749"
   y="-291.20087"
   id="rect3271"
   transform="rotate(29.409057)" /><g
   id="g130"
   style="opacity:1;vector-effect:none;fill:#cbddfc;fill-opacity:1;stroke:none;stroke-width:1.00130117;stroke-linecap:butt;stroke-linejoin:miter;stroke-miterlimit:4;stroke-dasharray:none;stroke-dashoffset:0;stroke-opacity:1"
   transform="scale(1,0.875)"
   inkscape:transform-center-x="32.526912"
   inkscape:transform-center-y="-28.991378"><path
     inkscape:connector-curvature="0"
     id="rect6739"
     d="M 481,-2.110545e-8 300.625,320 h 34.4375 L 515.4375,-2.110545e-8 Z"
     style="vector-effect:none;fill:#cbddfc;fill-opacity:1;stroke:none;stroke-width:1.00130117;stroke-linecap:butt;stroke-linejoin:miter;stroke-miterlimit:4;stroke-dasharray:none;stroke-dashoffset:0;stroke-opacity:1" /><path
     inkscape:connector-curvature="0"
     id="rect6743"
     d="M 549.84375,-2.110545e-8 369.46875,320 H 403.9375 L 550,60.875 V -2.110545e-8 Z"
     style="vector-effect:none;fill:#cbddfc;fill-opacity:1;stroke:none;stroke-width:1.00130117;stroke-linecap:butt;stroke-linejoin:miter;stroke-miterlimit:4;stroke-dasharray:none;stroke-dashoffset:0;stroke-opacity:1" /><path
     inkscape:connector-curvature="0"
     id="rect6747"
     d="M 550,121.96875 438.375,320 h 34.4375 L 550,183.0625 Z"
     style="vector-effect:none;fill:#cbddfc;fill-opacity:1;stroke:none;stroke-width:1.00130117;stroke-linecap:butt;stroke-linejoin:miter;stroke-miterlimit:4;stroke-dasharray:none;stroke-dashoffset:0;stroke-opacity:1" /><path
     inkscape:connector-curvature="0"
     id="rect6751"
     d="M 550,244.15625 507.25,320 h 34.4375 L 550,305.25 Z"
     style="vector-effect:none;fill:#cbddfc;fill-opacity:1;stroke:none;stroke-width:1.00130117;stroke-linecap:butt;stroke-linejoin:miter;stroke-miterlimit:4;stroke-dasharray:none;stroke-dashoffset:0;stroke-opacity:1" /></g><g
   id="max_width__x2F__height"
   display="none"
   style="display:none"
   transform="translate(0,-220)">
	<path
   display="inline"
   d="M 499.001,1 V 499 H 1 V 1 h 498.001 m 1,-1 H 0 v 500 h 500.001 z"
   id="path8137"
   inkscape:connector-curvature="0"
   style="display:inline" />
</g>


<path
   style="font-style:normal;font-variant:normal;font-weight:bold;font-stretch:normal;font-size:medium;line-height:125%;font-family:'Courier 10 Pitch';-inkscape-font-specification:'Courier 10 Pitch Bold';text-align:end;letter-spacing:0px;word-spacing:0px;text-anchor:end;fill:#aabdd9;fill-opacity:1;stroke:none;stroke-width:0.21185462"
   d="m 295.375,68.939453 c -0.05,0.01418 -0.0742,0.06152 -0.0742,0.140625 0,0.996727 -2.36407,12.078913 -2.63672,12.351563 -0.0527,0.05274 -2.42564,0.471949 -5.2207,0.949218 l -5.11524,0.896485 -0.68554,2.478515 c -0.38604,1.371159 -0.75935,2.552869 -0.84375,2.636719 -0.10548,0.05274 -2.0038,0.532595 -4.21875,1.001953 l -4.06055,0.84375 -4.21875,-0.240234 c -3.05874,-0.175049 -4.30507,-0.178524 -4.48437,-0.0098 -0.15821,0.158211 -0.66286,2.425656 -1.16016,5.0625 -0.74043,3.955267 -0.85377,4.850339 -0.63281,5.117193 0.15294,0.1793 3.56035,2.91586 7.56836,6.08007 4.02382,3.17476 7.2481,5.80263 7.1875,5.86328 -0.0527,0.0607 -2.37293,0.12698 -5.11524,0.14649 -6.57629,0.0527 -7.89453,0.42179 -7.89453,2.26758 0,1.05473 0.52727,2.05656 1.95117,3.74414 0.94926,1.05473 1.42378,1.43857 2.63672,1.95117 1.45027,0.63812 1.53079,0.64704 7.08399,0.84375 5.35807,0.21095 5.67374,0.26364 7.51953,0.84375 1.31842,0.4298 2.68936,0.67446 4.64062,0.84375 1.52937,0.13131 2.77702,0.25624 2.79492,0.27734 0,0 0.63278,1.16009 1.31836,2.58399 1.16021,2.21495 1.4765,2.6894 2.74219,3.84961 1.4239,1.26568 1.5819,1.37105 4.42969,2.26757 1.62957,0.52737 6.7986,2.16204 11.43945,3.69141 l -0.12697,-0.0468 c 4.65139,1.47663 8.63009,2.71582 8.81836,2.68945 0.45881,-0.0633 23.48828,-22.39199 23.48828,-22.77539 0,-0.16348 -2.79866,-5.03117 -6.22656,-10.8164 l -6.22852,-10.515629 -0.13281,-4.43164 c -0.0527,-2.489182 -0.37071,-6.63268 -0.68555,-9.427735 l -0.58008,-4.957031 -0.84375,-1.425781 c -0.52737,-0.896527 -0.97716,-1.419628 -1.21289,-1.423828 -0.20567,0 -3.03305,1.320234 -6.25,2.955078 -3.23277,1.634844 -7.41006,3.691363 -9.25586,4.58789 l -3.375,1.634766 -0.89648,-0.896484 c -0.48518,-0.495727 -3.10534,-3.302596 -5.79492,-6.203125 -3.66851,-3.982295 -5.29839,-5.528971 -5.64844,-5.429688 z m 0.38867,0.560547 0.58008,0.896484 c 0.92289,1.450264 8.3016,12.106996 8.61328,12.435547 0.26368,0.28056 0.52728,0.175812 1.8457,-0.457031 0.84379,-0.421895 3.2167,-1.529252 5.27344,-2.478516 2.03564,-0.949264 6.15415,-2.953053 9.10742,-4.482422 2.97436,-1.52937 5.44736,-2.728483 5.50586,-2.689453 0.0527,0.05274 0.44506,0.632782 0.84375,1.265625 0.73832,1.154938 0.73826,1.312264 1.31836,6.269532 0.33594,2.805602 0.65868,7.103398 0.73828,9.582031 l 0.14258,4.482422 6.24414,10.527341 c 4.97309,8.40626 6.19489,10.58101 5.97656,10.7793 -0.14766,0.13184 -5.04815,4.86242 -10.88085,10.5 l -0.0215,0.12891 c -12.79924,12.38789 -12.16601,11.77765 -12.16601,11.4375 0,-0.16244 -0.13653,-0.2228 -0.33008,-0.14844 -0.0195,0.007 -0.0255,0.002 -0.043,0.008 -0.0774,-0.0636 -0.15254,-0.12651 -0.26563,-0.21289 -0.2225,-0.24365 -0.87141,-0.73928 -1.69921,-1.27735 l -1.89844,-1.26562 -3.32227,-4.64063 c -1.84579,-2.5841 -3.41087,-4.74714 -3.48047,-4.85156 -0.0123,-0.0123 -0.17045,-0.0631 -0.21289,-0.084 l -0.0625,-0.0898 -0.48633,-0.13086 c -0.52934,-0.18664 -1.22739,-0.41058 -2.08593,-0.64453 -2.30987,-0.63284 -3.54859,-0.80787 -8.66407,-1.26563 -10.79524,-1.002 -11.58781,-1.10934 -13.27539,-1.68945 -1.49246,-0.5569 -1.92494,-0.60222 -7.24609,-0.79101 l -5.6582,-0.19922 -1.05469,-1.00196 c -0.63284,-0.5801 -1.2672,-1.11849 -1.47656,-1.26562 -0.21095,-0.10547 -0.81736,-0.79099 -1.31836,-1.42383 -0.40256,-0.53476 -0.76203,-0.943 -0.91797,-1.0625 -0.41664,-0.49129 -0.84427,-0.86857 -1.0957,-0.95508 -0.0122,-0.0644 -0.043,-0.14527 -0.043,-0.19922 0,-0.18991 0.12558,-0.4331 0.28125,-0.61914 0.0682,0.12684 0.2073,0.26603 0.43554,0.42774 0.34144,0.25 0.50451,0.31563 1.03321,0.21484 -0.0608,0.10897 0.093,0.0901 0.56445,-0.0176 1.40807,-0.28583 8.06427,-0.11996 11.9668,0.3457 4.5459,0.54366 6.4366,0.75439 7.49414,0.81446 0.13346,0.0209 0.45062,0.0677 0.4707,0.0723 0.0687,0.0137 0.21951,-0.012 0.40039,-0.0566 0.15918,-0.01 0.3267,-0.0149 0.45703,-0.0391 0.43508,-0.0817 0.83529,-0.27824 0.89649,-0.4375 0.0791,-0.2004 -3.56933,-2.51539 -11.94922,-7.52539 -10.37862,-6.21768 -12.80464,-7.6153 -13.70117,-7.9043 -0.0881,-0.02795 -0.13497,-0.241512 -0.10547,-0.474609 0.10548,-0.722495 1.54136,-8.46114 1.63476,-8.728516 0.0527,-0.185634 0.58001,-0.116522 1.95117,0.25 1.19186,0.316421 4.42362,0.760933 8.95899,1.265625 l 7.09961,0.791016 7.4082,-0.361328 c 5.87712,-0.294601 8.20246,-0.464939 7.4375,-0.550782 0.0345,-0.02023 0.0501,-0.04362 0.0254,-0.06836 -0.007,-0.0087 -0.42843,-0.09487 -0.51758,-0.119141 l 0.0332,-0.0078 c 0.46408,-0.105474 -1.43567,-0.527288 -7.15235,-1.6875 -6.39698,-1.265685 -7.78077,-1.618405 -7.76757,-1.898438 0,-0.210947 0.25784,-1.320256 0.58007,-2.480468 0.43877,-1.563648 0.67922,-2.116761 0.89649,-2.056641 0.16349,0.05274 4.17751,0.790976 8.87109,1.634765 l 8.57422,1.53125 9.30859,-0.296874 c 5.09438,-0.165068 9.35837,-0.34666 9.41797,-0.40625 0.0228,-0.02572 -0.047,-0.05122 -0.16211,-0.07422 0.0382,-0.0042 0.34446,-0.01633 0.34766,-0.01953 0.008,-0.0076 -0.86342,-0.154841 -1.08594,-0.199219 l 0.0566,-0.0078 c 0.74359,-0.105474 -1.90323,-0.58 -12.07617,-2.214844 -7.16695,-1.160212 -13.0435,-2.097245 -13.0625,-2.109374 0,-0.05274 0.29108,-1.371017 0.68555,-3.00586 0.4219,-1.655939 0.92284,-4.081969 1.16015,-5.40039 0.21148,-1.318423 0.46035,-2.679418 0.52735,-3.00586 z m 30.66797,3.519531 c -0.10331,-0.103306 -0.72302,1.232198 -0.73047,1.550781 0.038,-0.01381 0.19813,-0.250609 0.41016,-0.654296 0.23624,-0.42295 0.38041,-0.836365 0.32031,-0.896485 z m -0.73047,1.550781 c -0.004,0.0016 -0.0269,0.03666 -0.0273,0.03125 h 0.0195 c -4e-4,-0.0058 0.008,-0.02456 0.008,-0.03125 z"
   id="path2991"
   inkscape:connector-curvature="0" /><path
   inkscape:connector-curvature="0"
   id="path102"
   style="font-style:normal;font-variant:normal;font-weight:normal;font-stretch:normal;font-size:medium;line-height:1.25;font-family:'Atari ST Fonts';-inkscape-font-specification:'Atari ST Fonts';text-align:end;letter-spacing:0px;word-spacing:0px;text-anchor:end;vector-effect:none;fill:#87aade;fill-opacity:1;stroke:none;stroke-width:0.130319;stroke-linecap:butt;stroke-linejoin:miter;stroke-miterlimit:4;stroke-dasharray:none;stroke-dashoffset:0;stroke-opacity:1"
   d="m 433.50242,14.693932 v 14.763162 h 10.54511 v -2.109023 h 2.10902 v -4.218047 h -2.10902 v -2.109022 h 2.10902 v -4.218047 h -2.10902 v -2.109023 z m 4.21804,2.109023 h 4.21805 v 4.218047 h -4.21805 z m 0,6.327069 h 4.21805 v 4.218047 h -4.21805 z" /><path
   inkscape:connector-curvature="0"
   id="path104"
   style="font-style:normal;font-variant:normal;font-weight:normal;font-stretch:normal;font-size:medium;line-height:1.25;font-family:'Atari ST Fonts';-inkscape-font-specification:'Atari ST Fonts';text-align:end;letter-spacing:0px;word-spacing:0px;text-anchor:end;vector-effect:none;fill:#87aade;fill-opacity:1;stroke:none;stroke-width:0.130319;stroke-linecap:butt;stroke-linejoin:miter;stroke-miterlimit:4;stroke-dasharray:none;stroke-dashoffset:0;stroke-opacity:1"
   d="m 448.18122,29.457094 h 8.08177 v -2.109023 h -2.10902 v -8.436092 h -4.21805 v 8.351731 l -1.7547,-0.03375 z m 5.97275,-12.654139 v -2.109023 h -4.21805 v 2.109023 z m -4.21805,4.201174 h -1.70409 v -2.058406 h 1.70409 z" /><path
   inkscape:connector-curvature="0"
   id="path106"
   style="font-style:normal;font-variant:normal;font-weight:normal;font-stretch:normal;font-size:medium;line-height:1.25;font-family:'Atari ST Fonts';-inkscape-font-specification:'Atari ST Fonts';text-align:end;letter-spacing:0px;word-spacing:0px;text-anchor:end;vector-effect:none;fill:#87aade;fill-opacity:1;stroke:none;stroke-width:0.130319;stroke-linecap:butt;stroke-linejoin:miter;stroke-miterlimit:4;stroke-dasharray:none;stroke-dashoffset:0;stroke-opacity:1"
   d="m 458.3823,29.457094 h 4.21805 v -8.436092 h 4.21804 v 8.436092 h 4.21805 v -8.436092 h -2.10903 V 18.911979 H 458.3823 Z" /><path
   inkscape:connector-curvature="0"
   id="path108"
   style="font-style:normal;font-variant:normal;font-weight:normal;font-stretch:normal;font-size:medium;line-height:1.25;font-family:'Atari ST Fonts';-inkscape-font-specification:'Atari ST Fonts';text-align:end;letter-spacing:0px;word-spacing:0px;text-anchor:end;vector-effect:none;fill:#87aade;fill-opacity:1;stroke:none;stroke-width:0.130319;stroke-linecap:butt;stroke-linejoin:miter;stroke-miterlimit:4;stroke-dasharray:none;stroke-dashoffset:0;stroke-opacity:1"
   d="m 473.14546,27.348071 h 2.10902 v 2.109023 h 10.54512 v -8.436092 h -2.10903 v -2.109023 h -8.43609 v 2.109023 h 6.32707 v 2.109022 h -6.32707 v 2.109023 h -2.10902 z m 4.21804,-2.109024 h 4.21805 v 2.109024 h -4.21805 z" /><path
   inkscape:connector-curvature="0"
   id="path110"
   style="font-style:normal;font-variant:normal;font-weight:normal;font-stretch:normal;font-size:medium;line-height:1.25;font-family:'Atari ST Fonts';-inkscape-font-specification:'Atari ST Fonts';text-align:end;letter-spacing:0px;word-spacing:0px;text-anchor:end;vector-effect:none;fill:#87aade;fill-opacity:1;stroke:none;stroke-width:0.130319;stroke-linecap:butt;stroke-linejoin:miter;stroke-miterlimit:4;stroke-dasharray:none;stroke-dashoffset:0;stroke-opacity:1"
   d="M 500.56276,29.457094 V 18.911979 h -4.21805 v 8.436092 h -4.21804 v -8.436092 h -4.21805 v 8.436092 h 2.10903 v 2.109023 z" /><path
   inkscape:connector-curvature="0"
   id="path112"
   style="font-style:normal;font-variant:normal;font-weight:normal;font-stretch:normal;font-size:medium;line-height:1.25;font-family:'Atari ST Fonts';-inkscape-font-specification:'Atari ST Fonts';text-align:end;letter-spacing:0px;word-spacing:0px;text-anchor:end;vector-effect:none;fill:#87aade;fill-opacity:1;stroke:none;stroke-width:0.130319;stroke-linecap:butt;stroke-linejoin:miter;stroke-miterlimit:4;stroke-dasharray:none;stroke-dashoffset:0;stroke-opacity:1"
   d="m 502.67178,29.457094 h 4.21805 v -8.436092 h 4.21805 v 2.109022 h 4.21805 v -2.109022 h -2.10903 v -2.109023 h -10.54512 z" /><path
   inkscape:connector-curvature="0"
   id="path114"
   style="font-style:normal;font-variant:normal;font-weight:normal;font-stretch:normal;font-size:medium;line-height:1.25;font-family:'Atari ST Fonts';-inkscape-font-specification:'Atari ST Fonts';text-align:end;letter-spacing:0px;word-spacing:0px;text-anchor:end;vector-effect:none;fill:#87aade;fill-opacity:1;stroke:none;stroke-width:0.130319;stroke-linecap:butt;stroke-linejoin:miter;stroke-miterlimit:4;stroke-dasharray:none;stroke-dashoffset:0;stroke-opacity:1"
   d="m 517.43495,27.348071 h 2.10902 v 2.109023 h 10.54511 v -8.436092 h -2.10903 v -2.109023 h -8.43608 v 2.109023 h 6.32706 v 2.109022 h -6.32706 v 2.109023 h -2.10902 z m 4.21804,-2.109024 h 4.21804 v 2.109024 h -4.21804 z" /><path
   inkscape:connector-curvature="0"
   id="path116"
   style="font-style:normal;font-variant:normal;font-weight:normal;font-stretch:normal;font-size:medium;line-height:1.25;font-family:'Atari ST Fonts';-inkscape-font-specification:'Atari ST Fonts';text-align:end;letter-spacing:0px;word-spacing:0px;text-anchor:end;vector-effect:none;fill:#87aade;fill-opacity:1;stroke:none;stroke-width:0.130319;stroke-linecap:butt;stroke-linejoin:miter;stroke-miterlimit:4;stroke-dasharray:none;stroke-dashoffset:0;stroke-opacity:1"
   d="m 533.96969,17.241632 h -1.68722 v -2.446467 l 1.70409,0.03375 z m 4.23491,10.106439 0.0337,-12.536034 h -4.28553 l 0.0507,12.536034 h -1.72095 l -0.0169,2.109023 h 8.04803 v -2.109023 z" /><path
   d="m 468.28208,45.604302 v 2.07607 h 10.38035 v -2.07607 h 2.07607 v -2.07607 h -2.07607 v -2.076069 h -6.22821 v -2.07607 h 6.22821 v -2.07607 h -8.30428 v 2.07607 h -2.07607 v 2.07607 h 2.07607 v 2.076069 h 6.22821 v 2.07607 z"
   style="font-style:normal;font-variant:normal;font-weight:normal;font-stretch:normal;font-size:medium;line-height:1.25;font-family:'Atari ST Fonts';-inkscape-font-specification:'Atari ST Fonts';letter-spacing:0px;word-spacing:0px;vector-effect:none;fill:#87aade;fill-opacity:1;stroke:none;stroke-width:0.100532;stroke-linecap:butt;stroke-linejoin:miter;stroke-miterlimit:4;stroke-dasharray:none;stroke-dashoffset:0;stroke-opacity:1"
   id="path85"
   inkscape:connector-curvature="0" /><path
   d="m 491.11885,45.604302 h 2.07606 v -2.07607 h 2.07608 v -6.228209 h -4.15214 v 6.228209 h -4.15214 v -6.228209 h -4.15214 v 6.228209 h 2.07607 v 2.07607 h 2.07607 v 2.07607 h -2.07607 v 2.076069 h 4.15214 v -2.076069 h 2.07607 z"
   style="font-style:normal;font-variant:normal;font-weight:normal;font-stretch:normal;font-size:medium;line-height:1.25;font-family:'Atari ST Fonts';-inkscape-font-specification:'Atari ST Fonts';letter-spacing:0px;word-spacing:0px;vector-effect:none;fill:#87aade;fill-opacity:1;stroke:none;stroke-width:0.100532;stroke-linecap:butt;stroke-linejoin:miter;stroke-miterlimit:4;stroke-dasharray:none;stroke-dashoffset:0;stroke-opacity:1"
   id="path87"
   inkscape:connector-curvature="0" /><path
   d="m 497.34706,47.680372 h 4.15214 v -8.304279 h 4.15213 v 8.304279 h 4.15215 v -8.304279 h -2.07608 v -2.07607 h -10.38034 z"
   style="font-style:normal;font-variant:normal;font-weight:normal;font-stretch:normal;font-size:medium;line-height:1.25;font-family:'Atari ST Fonts';-inkscape-font-specification:'Atari ST Fonts';letter-spacing:0px;word-spacing:0px;vector-effect:none;fill:#87aade;fill-opacity:1;stroke:none;stroke-width:0.100532;stroke-linecap:butt;stroke-linejoin:miter;stroke-miterlimit:4;stroke-dasharray:none;stroke-dashoffset:0;stroke-opacity:1"
   id="path89"
   inkscape:connector-curvature="0" /><path
   d="m 513.95561,45.604302 h 2.07608 v 2.07607 h 6.2282 v -2.07607 h -4.15214 v -6.228209 h 4.15214 v -2.07607 h -4.15214 v -4.152139 h -4.15214 v 4.152139 h -2.07607 v 2.07607 h 2.07607 z"
   style="font-style:normal;font-variant:normal;font-weight:normal;font-stretch:normal;font-size:medium;line-height:1.25;font-family:'Atari ST Fonts';-inkscape-font-specification:'Atari ST Fonts';letter-spacing:0px;word-spacing:0px;vector-effect:none;fill:#87aade;fill-opacity:1;stroke:none;stroke-width:0.100532;stroke-linecap:butt;stroke-linejoin:miter;stroke-miterlimit:4;stroke-dasharray:none;stroke-dashoffset:0;stroke-opacity:1"
   id="path91"
   inkscape:connector-curvature="0" /><path
   d="m 534.71631,37.300023 h -6.22821 v -4.152139 h -4.15214 v 14.532488 h 4.15214 v -8.304279 h 4.15214 v 8.304279 h 4.15214 v -8.304279 h -2.07607 z"
   style="font-style:normal;font-variant:normal;font-weight:normal;font-stretch:normal;font-size:medium;line-height:1.25;font-family:'Atari ST Fonts';-inkscape-font-specification:'Atari ST Fonts';letter-spacing:0px;word-spacing:0px;vector-effect:none;fill:#87aade;fill-opacity:1;stroke:none;stroke-width:0.100532;stroke-linecap:butt;stroke-linejoin:miter;stroke-miterlimit:4;stroke-dasharray:none;stroke-dashoffset:0;stroke-opacity:1"
   id="path93"
   inkscape:connector-curvature="0" /><path
   d="M 309.47442,14.655033 V 37.31283 h 16.18415 v -3.236828 h 3.23682 v -6.473657 h -3.23682 v -3.236828 h 3.23682 v -6.473656 h -3.23682 v -3.236828 z m 6.47366,3.236828 h 6.47366 v 6.473656 h -6.47366 z m 0,9.710484 h 6.47366 v 6.473657 h -6.47366 z"
   id="path904"
   style="font-size:40px;line-height:1.25;font-family:'Atari ST Fonts';-inkscape-font-specification:'Atari ST Fonts';letter-spacing:0px;word-spacing:0px;fill:#5d8dd3;fill-opacity:1;stroke-width:0.647366" /><path
   d="m 332.13217,14.655033 v 3.236828 h 3.23683 v 16.184141 h -3.23683 v 3.236828 h 12.94731 v -3.236828 h -3.23683 V 17.891861 h 3.23683 v -3.236828 z"
   id="path906"
   style="font-size:40px;line-height:1.25;font-family:'Atari ST Fonts';-inkscape-font-specification:'Atari ST Fonts';letter-spacing:0px;word-spacing:0px;fill:#5d8dd3;fill-opacity:1;stroke-width:0.647366" /><path
   d="m 361.26358,27.602345 v 3.236829 h 3.23683 v 6.473656 h 6.47365 V 14.655033 h -6.47365 v 9.710484 h -3.23683 v -3.236828 h -3.23683 v -3.236828 h -3.23683 v -3.236828 h -6.47366 V 37.31283 h 6.47366 V 24.365517 h 3.23683 v 3.236828 z"
   id="path908"
   style="font-size:40px;line-height:1.25;font-family:'Atari ST Fonts';-inkscape-font-specification:'Atari ST Fonts';letter-spacing:0px;word-spacing:0px;fill:#5d8dd3;fill-opacity:1;stroke-width:0.647366" /><path
   d="m 374.21084,24.365517 v 3.236828 h 19.42097 v -3.236828 z"
   id="path910"
   style="font-size:40px;line-height:1.25;font-family:'Atari ST Fonts';-inkscape-font-specification:'Atari ST Fonts';letter-spacing:0px;word-spacing:0px;fill:#5d8dd3;fill-opacity:1;stroke-width:0.647366" /><path
   d="m 413.05273,17.891861 v -3.236828 h -12.94731 v 3.236828 h -3.23683 v 6.473656 h 3.23683 v 3.236828 h -3.23683 v 6.473657 h 3.23683 v 3.236828 h 12.94731 v -3.236828 h 3.23683 v -6.473657 h -3.23683 v -3.236828 h 3.23683 v -6.473656 z m -9.71048,0 h 6.47365 v 6.473656 h -6.47365 z m 6.47365,16.184141 h -6.47365 v -6.473657 h 6.47365 z"
   id="path912"
   style="font-size:40px;line-height:1.25;font-family:'Atari ST Fonts';-inkscape-font-specification:'Atari ST Fonts';letter-spacing:0px;word-spacing:0px;fill:#5d8dd3;fill-opacity:1;stroke-width:0.647366" /></svg>
